<?xml version="1.0" standalone="no"?>
<!DOCTYPE svg PUBLIC "-//W3C//DTD SVG 20010904//EN"
 "http://www.w3.org/TR/2001/REC-SVG-20010904/DTD/svg10.dtd">
<svg version="1.0" xmlns="http://www.w3.org/2000/svg"
 width="700.000000pt" height="700.000000pt" viewBox="0 0 700.000000 700.000000"
 preserveAspectRatio="xMidYMid meet">
<metadata>
Created by potrace 1.14, written by Peter Selinger 2001-2017
</metadata>
<g transform="translate(0.000000,700.000000) scale(0.100000,-0.100000)"
fill="#000000" stroke="none">
<path d="M1990 6942 c-135 -10 -319 -71 -440 -144 -213 -129 -377 -323 -459
-543 -61 -161 -64 -186 -67 -530 -2 -176 1 -342 6 -370 5 -27 12 -68 15 -89 4
-22 20 -78 37 -125 142 -408 540 -703 963 -715 l40 -1 2 135 c2 189 8 244 42
390 71 306 278 609 551 805 106 76 280 163 389 195 l83 25 -6 55 c-8 83 -51
222 -100 320 -76 155 -213 313 -353 408 -52 35 -211 120 -230 123 -5 1 -19 6
-33 11 -101 38 -302 61 -440 50z"/>
<path d="M4702 6923 c-114 -23 -176 -45 -275 -95 -211 -106 -401 -308 -497
-527 -35 -81 -80 -246 -80 -295 0 -30 3 -32 78 -54 192 -59 396 -181 550 -330
162 -157 269 -319 345 -522 67 -182 90 -319 91 -550 0 -65 4 -118 10 -122 5
-4 24 -5 40 -3 17 2 58 6 91 10 141 14 365 105 486 197 223 170 367 397 420
663 19 97 20 694 1 780 -76 339 -271 599 -562 749 -224 116 -458 149 -698 99z"/>
<path d="M3385 5669 c-413 -42 -776 -340 -903 -739 -11 -36 -23 -78 -26 -95
-4 -16 -9 -41 -13 -55 -3 -14 -8 -167 -9 -340 -2 -238 1 -334 12 -395 73 -408
368 -735 766 -849 384 -110 791 5 1068 301 137 147 218 303 272 523 15 62 19
668 5 752 -23 139 -89 306 -172 434 -50 75 -202 229 -280 281 -218 146 -464
208 -720 182z"/>
<path d="M1469 4275 c-2 -2 -22 -6 -44 -9 -182 -29 -443 -136 -616 -251 -395
-266 -667 -689 -735 -1145 -15 -101 -18 -239 -19 -785 0 -610 0 -621 21 -660
11 -22 40 -53 63 -70 l42 -30 466 0 c313 -1 466 3 468 10 2 5 6 66 10 134 3
69 8 127 9 130 2 3 7 31 11 61 19 156 103 411 191 585 220 435 584 777 1029
965 55 24 101 44 103 45 2 2 -13 20 -33 41 -56 61 -149 202 -199 301 -76 151
-117 293 -142 488 -2 21 -6 40 -7 41 -1 1 -41 4 -88 8 -47 4 -97 9 -110 11
-13 3 -37 8 -54 11 -67 11 -205 54 -246 75 -32 16 -117 48 -120 44z"/>
<path d="M5452 4248 c-138 -63 -298 -104 -449 -114 -49 -4 -89 -7 -90 -8 -1
-1 -5 -22 -8 -47 -3 -24 -7 -54 -9 -66 -3 -11 -8 -43 -12 -70 -25 -175 -163
-464 -292 -614 -70 -82 -70 -74 0 -99 144 -53 426 -217 524 -305 7 -5 50 -44
96 -85 284 -254 493 -593 598 -970 11 -41 23 -91 26 -110 3 -19 7 -37 9 -40 2
-3 7 -33 10 -65 4 -33 9 -62 10 -66 2 -3 7 -61 11 -130 3 -68 8 -126 9 -129 2
-3 213 -6 468 -5 l465 0 43 30 c23 17 52 48 63 70 21 39 21 50 21 675 -1 349
-5 662 -9 695 -12 93 -13 98 -21 140 -3 22 -11 54 -16 71 -5 17 -11 40 -13 50
-18 90 -160 412 -205 466 -6 7 -35 45 -64 85 -231 317 -578 549 -950 638 -147
35 -146 35 -215 3z"/>
<path d="M2889 3006 c-2 -2 -20 -6 -39 -9 -224 -32 -506 -155 -715 -312 -341
-257 -596 -680 -650 -1080 -4 -27 -9 -61 -12 -75 -3 -14 -6 -319 -7 -677 -2
-613 -1 -655 16 -692 20 -43 65 -83 113 -98 46 -15 3792 -10 3827 5 42 18 86
65 101 108 18 52 16 1267 -2 1390 -82 566 -428 1043 -935 1289 -126 62 -225
96 -374 130 l-103 24 -62 -28 c-114 -52 -257 -94 -372 -109 -64 -9 -307 -8
-362 0 -132 22 -332 86 -414 134 -3 2 -8 2 -10 0z"/>
</g>
</svg>
